<svg width="1388" height="1422" viewBox="0 0 1388 1422" fill="none" xmlns="http://www.w3.org/2000/svg" xmlns:xlink="http://www.w3.org/1999/xlink">
<path d="M1372,726C1372,1090.508 1076.508,1386 712,1386C347.492,1386 52,1090.508 52,726C52,361.492 347.492,66 712,66C1076.508,66 1372,361.492 1372,726Z" stroke="#FFFFFF" stroke-width="6" stroke-miterlimit="3.999327"/>
<path d="M52,149.644C52,104.892 88.278,68.614 133.03,68.614L684.882,68.614C713.032,68.614 735.852,91.434 735.852,119.584L753.766,680.6C755.226,726.342 718.542,764.216 672.778,764.216L91.208,764.216C69.554,764.216 52,746.662 52,725.008L52,149.644Z" stroke="#FFFFFF" stroke-width="6" stroke-miterlimit="3.999327"/>
<path d="M1388,694C1388,1077.286 1077.286,1388 694,1388C310.714,1388 0,1077.286 0,694C0,310.714 310.714,0 694,0C1077.286,0 1388,310.714 1388,694Z" stroke="#FFFFFF" stroke-width="6" stroke-miterlimit="3.999327"/>
<path d="M0,87.953C0,40.896 38.147,2.749 85.204,2.749L665.484,2.749C695.084,2.749 719.08,26.744 719.08,56.345L737.918,646.262C739.454,694.36 700.88,734.186 652.756,734.186L41.228,734.186C18.458,734.186 0,715.726 0,692.958L0,87.953Z" stroke="#FFFFFF" stroke-width="6" stroke-miterlimit="3.999327"/>
<path d="M1374,782C1374,1134.358 1088.358,1420 736,1420C383.642,1420 98,1134.358 98,782C98,429.642 383.642,144 736,144C1088.358,144 1374,429.642 1374,782Z" fill="url(#pf_0_11_17)"/>
<path d="M98,224.856C98,181.596 133.069,146.527 176.329,146.527L709.786,146.527C736.996,146.527 759.056,168.586 759.056,195.798L776.374,738.114C777.786,782.33 742.324,818.942 698.084,818.942L135.901,818.942C114.969,818.942 98,801.974 98,781.042L98,224.856Z" fill="url(#pf_0_11_17)"/>
<path d="M1378,782.008C1378,1134.368 1092.332,1422 739.984,1422C387.634,1422 102.034,1134.368 102.034,782.008C102.034,429.646 387.668,144 740.016,144C1092.366,144 1378,429.646 1378,782.008Z" fill="url(#pattern_0_11_19)"/>
<path d="M102,225.518C102,182.258 137.068,147.189 180.327,147.189L713.768,147.189C740.98,147.189 763.038,169.248 763.038,196.46L780.356,738.782C781.768,783 746.308,819.612 702.068,819.612L139.9,819.612C118.968,819.612 102,802.644 102,781.71L102,225.518Z" fill="url(#pattern_0_11_19)"/>
<defs>
<linearGradient id="pf_0_11_17" x1="736" y1="144" x2="736" y2="1420" gradientUnits="userSpaceOnUse">
<stop stop-color="#82257E"/>
<stop offset="1" stop-color="#621B5F"/>
</linearGradient>
<linearGradient id="pf_0_11_17" x1="736" y1="144" x2="736" y2="1420" gradientUnits="userSpaceOnUse">
<stop stop-color="#82257E"/>
<stop offset="1" stop-color="#621B5F"/>
</linearGradient>
</defs>
</svg>
