<?xml version="1.0" encoding="utf-8"?>
<!-- Generator: Adobe Illustrator 19.0.0, SVG Export Plug-In . SVG Version: 6.00 Build 0)  -->
<svg version="1.1" id="Layer_1" xmlns="http://www.w3.org/2000/svg" xmlns:xlink="http://www.w3.org/1999/xlink" x="0px" y="0px"
	 viewBox="-137 372.9 320 96" style="enable-background:new -137 372.9 320 96;" xml:space="preserve">
<style type="text/css">
	.st0{fill:#7F3F97;}
	.st1{fill:#CBB8D9;}
	.st2{fill:#FFFFFF;}
	.st3{enable-background:new    ;}
	.st4{fill:#58595B;}
</style>
<g id="Layer_2_1_">
	<g id="Logo_default_1_">
		<g id="XMLID_71_">
			<g id="XMLID_79_">
				<path id="XMLID_114_" class="st0" d="M-68.3,375.8c13.7,0,24.8,11.1,24.8,24.8v40.7c0,13.7-11.1,24.8-24.8,24.8H-109
					c-13.7-0.1-24.8-11.2-24.8-24.8v-40.8c0-13.6,11.1-24.7,24.8-24.7H-68.3 M-68.3,373.4H-109c-15,0-27.2,12.2-27.2,27.1v40.7
					c0,15,12.2,27.1,27.1,27.1h40.7c15,0,27.1-12.2,27.1-27.1v-40.7C-41.2,385.6-53.3,373.4-68.3,373.4L-68.3,373.4z"/>
				<path id="XMLID_45_" class="st0" d="M-47.5,439.4c0,12.5-10.1,22.6-22.6,22.6h-37.1c-12.5,0-22.6-10.1-22.6-22.6v-37.1
					c0-12.5,10.1-22.6,22.6-22.6h37.1c12.5,0,22.6,10.1,22.6,22.6C-47.5,402.3-47.5,439.4-47.5,439.4z"/>
			</g>
			<g id="XMLID_72_">
				<g id="XMLID_76_">
					<path id="XMLID_44_" class="st1" d="M-100.1,407.4h9.3v27.5c0,3.4-1,6.2-3,8.4c-1.1,1.2-2.6,2.2-4.3,3
						c-1.8,0.7-3.6,1.1-5.4,1.1c-3.7,0-6.8-1.1-9.3-3.4c-2.5-2.2-3.8-5-3.8-8.3c0-3.2,1.3-5.9,3.8-8.2c2.5-2.3,5.5-3.4,8.9-3.4
						c0.5,0,1.4,0,2.5,0.1v9.2c-0.8-0.5-1.5-0.8-2.3-0.8c-1,0-1.8,0.3-2.5,1c-0.7,0.6-1,1.4-1,2.3c0,0.9,0.4,1.6,1.1,2.2
						c0.7,0.6,1.6,0.9,2.5,0.9c2.4,0,3.6-1.5,3.6-4.5L-100.1,407.4L-100.1,407.4z"/>
					<path id="XMLID_43_" class="st1" d="M-77.2,407.4v27.2c0,3,1.2,4.5,3.5,4.5c1,0,1.9-0.3,2.6-0.9c0.7-0.6,1.1-1.4,1.1-2.3
						c0-0.9-0.3-1.7-1-2.3s-1.5-0.9-2.4-0.9c-0.7,0-1.5,0.3-2.3,0.8v-9.2c1.1-0.1,1.9-0.1,2.5-0.1c3.5,0,6.5,1.1,8.9,3.4
						c2.5,2.3,3.7,5,3.7,8.2c0,3.3-1.3,6-3.8,8.3c-2.5,2.2-5.6,3.4-9.3,3.4c-1.8,0-3.7-0.4-5.4-1.1c-1.8-0.7-3.2-1.7-4.3-3
						c-2-2.2-3-4.9-3-8.4v-27.6H-77.2z"/>
				</g>
				<g id="XMLID_73_">
					<g id="XMLID_74_">
						<circle id="XMLID_42_" class="st2" cx="-88.2" cy="399.4" r="4.8"/>
					</g>
				</g>
			</g>
		</g>
		<g id="XMLID_48_">
			<path id="XMLID_41_" class="st0" d="M125.9,389.9c1.2,0,2.1,0.4,3,1.2c0.8,0.8,1.3,1.8,1.3,2.8c0,1.2-0.4,2.1-1.2,2.9
				c-0.8,0.8-1.8,1.1-3.1,1.1c-1.2,0-2.3-0.4-3.1-1.1c-0.8-0.8-1.2-1.7-1.2-2.9c0-1.1,0.4-2,1.3-2.8
				C123.8,390.3,124.8,389.9,125.9,389.9"/>
			<g class="st3">
				<path class="st0" d="M103.5,431.5c0.6-1.4,1.3-2.6,2-3.5c0.7-0.9,1.4-1.7,2.2-2.2c0.7-0.5,1.3-0.9,2-1.1
					c0.6-0.2,1.3-0.3,1.9-0.3c1.1,0,2.1,0.2,2.9,0.7c0.9,0.5,1.6,1,2.1,1.6c0.2,0.2,0.3,0.5,0.4,0.7c0.1,0.2,0.2,0.4,0.2,0.6
					c0.1,0.6,0.2,1.2,0.3,1.8c0.1,0.6,0.1,1.1,0.1,1.6c0,2-0.4,3.6-1.2,4.8c-0.8,1.2-1.6,2.1-2.6,2.8c-0.4,0.3-0.8,0.5-1.2,0.7
					c-0.4,0.2-0.7,0.3-1.1,0.4c-0.1,0-0.1,0-0.2,0.1c-0.1,0-0.1,0-0.2,0.1c0,0,0,0-0.1,0c0,0,0,0-0.1,0c-0.4,0.1-0.7,0.3-0.9,0.4
					c-0.1,0.1,0.3,0.3,1.5,0.6c1.4,0.3,2.4,1,3.1,2c0.7,1,1,2.1,1,3.2c0,0.9-0.2,1.7-0.6,2.6c-0.4,0.8-1.1,1.5-1.9,2
					c-1.3,0.7-2.4,1.2-3.4,1.3c-1,0.1-1.8,0.2-2.4,0.3c0,0-0.1,0-0.1,0s-0.1,0-0.1,0c-0.1,0-0.2,0-0.3,0s-0.3,0-0.4,0.1
					c-0.3,0-0.7,0-1.1,0s-0.8,0-1.2,0c-0.1,0-0.3,0-0.4,0s-0.2,0-0.4,0c-0.7,0-1.3,0-1.8-0.1s-0.8-0.1-0.9-0.3c0-0.1,0-0.1,0-0.2
					c0-0.1,0-0.1,0-0.2c0-0.2,0-0.4,0.1-0.6c0-0.2,0.1-0.5,0.2-0.7c0.1-0.3,0.2-0.6,0.3-0.8c0.1-0.3,0.3-0.5,0.5-0.6
					c0.1-0.1,0.1-0.1,0.2-0.2s0.1-0.1,0.2-0.1c0.5,0,1,0,1.5,0.1c0.5,0,1.1,0,1.7,0c0.4,0,0.7,0,1.1,0s0.7,0,1.1-0.1
					c0.2,0,0.5-0.1,0.8-0.1c0.3-0.1,0.6-0.1,0.9-0.2c0.6-0.2,1.1-0.4,1.6-0.7c0.5-0.3,0.8-0.7,0.8-1.1c0,0,0-0.1,0-0.1
					c0,0,0-0.1,0-0.1c0,0,0-0.1,0-0.1c0,0,0-0.1,0-0.1c0-0.7-0.3-1.2-0.9-1.5c-0.6-0.3-1.2-0.6-1.9-0.8c-0.5-0.2-1-0.4-1.5-0.6
					c-0.5-0.2-0.8-0.5-1-0.8c-0.2-0.3-0.3-0.6-0.4-1c-0.1-0.3-0.1-0.6-0.1-0.9c0-0.6,0.2-1.2,0.5-1.7s0.9-0.9,1.6-1.3
					c0.3-0.1,0.7-0.3,1.1-0.5c0.4-0.2,0.9-0.4,1.3-0.7c0.8-0.5,1.5-1.1,2.2-1.9s1-1.9,1-3.3c0-0.3,0-0.5-0.1-0.8
					c0-0.3-0.1-0.6-0.1-0.9c-0.1-0.6-0.3-1-0.6-1.3c-0.3-0.3-0.7-0.4-1.1-0.4c-0.4,0-0.8,0.1-1.3,0.4c-0.5,0.2-0.9,0.6-1.4,1
					c-0.5,0.5-0.9,1-1.4,1.7c-0.4,0.7-0.9,1.4-1.2,2.3L98,452.8h-4.4L103.5,431.5z"/>
				<path class="st0" d="M130,449C130.1,449,130.1,449,130,449c0.3,0,0.7-0.2,1.4-0.6c0.7-0.4,1.4-0.9,2.1-1.5
					c0.2-0.2,0.4-0.3,0.6-0.5c0.2-0.2,0.4-0.3,0.6-0.5c0,0,0.1-0.1,0.1-0.1s0.1-0.1,0.1-0.1c0.2-0.2,0.4-0.2,0.5,0.1
					s0.2,0.7,0.2,1.1c0,0.1,0,0.2,0,0.2c0,0.1,0,0.1,0,0.2c0,0.2-0.1,0.4-0.1,0.6c0,0.2-0.1,0.3-0.1,0.5c-0.1,0.3-0.3,0.5-0.6,0.8
					c-0.3,0.3-0.7,0.6-1.1,0.8c-0.2,0.2-0.4,0.3-0.6,0.4c-0.2,0.1-0.4,0.3-0.7,0.4s-0.5,0.3-0.7,0.4c-0.2,0.1-0.5,0.3-0.7,0.4
					c-0.4,0.2-0.7,0.4-1.1,0.5s-0.8,0.2-1.1,0.3c-0.1,0-0.3,0-0.4,0.1c-0.1,0-0.2,0-0.4,0c-0.1,0-0.3,0-0.4,0c-0.1,0-0.2,0-0.3-0.1
					c-0.1,0-0.1,0-0.2,0c-0.1,0-0.1,0-0.2-0.1c-0.2,0-0.3-0.2-0.4-0.5c-0.1-0.3-0.2-0.6-0.2-1c0,0,0-0.1,0-0.1c0,0,0-0.1,0-0.1
					s0-0.1,0-0.1c0,0,0-0.1,0-0.1c-0.1,0.1-0.2,0.2-0.3,0.3s-0.2,0.2-0.4,0.3c-0.4,0.3-0.8,0.6-1.4,0.9c-0.6,0.3-1.3,0.4-2.3,0.4
					c0,0-0.1,0-0.1,0s-0.1,0-0.1,0c-0.9,0-1.7-0.3-2.4-0.9c-0.7-0.6-1.2-1.5-1.4-2.7c-0.1-0.4-0.1-0.7-0.1-1.1c0-0.3,0-0.6,0-0.9
					c0-0.7,0.1-1.2,0.2-1.7c0.1-0.4,0.3-0.9,0.4-1.3c0.1-0.2,0.2-0.3,0.2-0.5c0.1-0.2,0.2-0.3,0.2-0.5c0.1-0.3,0.4-0.6,0.7-0.9
					c0.3-0.3,0.7-0.7,1.1-1c0.9-0.7,2-1.4,3.2-2c1.3-0.6,2.6-1,4-1.2c0.2,0,0.4,0,0.7-0.1s0.5,0,0.7,0c0.1,0,0.1,0,0.1,0
					s0.1,0,0.1,0c0,0,0.1,0,0.1,0s0.1,0,0.1,0c0.1,0,0.2,0,0.2,0c0.1,0,0.2,0,0.2,0c0.1,0,0.2,0,0.3,0s0.2,0,0.3,0
					c0.5,0,0.9,0,1.3,0.1c0.4,0,0.6,0.1,0.7,0.2c0,0.1,0.1,0.2,0.1,0.4c0,0.2,0.1,0.4,0.1,0.6c0,0.2,0,0.3,0,0.5c0,0.2,0,0.3,0,0.4
					c0,0.1,0,0.2,0,0.2s0,0.1,0,0.2c0,0.1,0,0.2,0,0.2s0,0.1,0,0.2c0,0.2,0,0.3,0,0.4c0,0.1-0.1,0.1-0.2,0.1c-0.1,0-0.2,0-0.3-0.1
					c-0.1-0.1-0.3-0.1-0.6-0.2c-0.2-0.1-0.5-0.2-0.9-0.3c-0.3-0.1-0.7-0.1-1.1-0.1c0,0-0.1,0-0.1,0c0,0,0,0-0.1,0s0,0-0.1,0
					c-0.4,0-0.9,0.1-1.4,0.2c-0.5,0.1-1,0.3-1.5,0.5c-1.1,0.4-2.2,1.1-3.1,1.9c-1,0.8-1.5,1.7-1.7,2.7c0,0.3-0.1,0.6-0.1,0.9
					s0,0.5,0,0.7c0,0.7,0.1,1.2,0.3,1.5c0.2,0.3,0.5,0.4,0.7,0.4c0.1,0,0.2,0,0.3,0c0.1,0,0.2-0.1,0.3-0.1c0.1-0.1,0.3-0.1,0.4-0.2
					c0.1-0.1,0.3-0.1,0.4-0.2c0.1-0.1,0.2-0.1,0.2-0.2c0.1-0.1,0.2-0.1,0.2-0.2c0.5-0.3,0.9-0.7,1.4-1.2c0.4-0.4,0.8-0.9,1.2-1.5
					c0.3-0.4,0.6-0.9,0.9-1.4c0.3-0.5,0.6-1.1,1-1.7c0,0,0.1,0,0.1,0c0,0,0.1,0,0.1,0.1c0.1,0,0.2,0.1,0.4,0.1
					c0.1,0,0.3,0.1,0.5,0.1c0.1,0,0.1,0,0.2,0c0.1,0,0.1,0,0.2,0c0.1,0,0.2,0,0.3,0c0.1,0,0.2,0,0.3,0c0.3,0,0.6,0,0.8,0
					s0.5,0,0.6,0c-0.6,1.4-1.2,2.6-1.7,3.7c-0.5,1-0.8,1.7-0.8,2.1c0,0,0,0.1,0,0.1S130,449,130,449L130,449z"/>
				<path class="st0" d="M149.6,443.9c-0.2,0.5-0.4,1-0.7,1.5c0,0.1-0.1,0.2-0.1,0.3c0,0.1-0.1,0.2-0.1,0.3c-0.3,0.7-0.6,1.4-0.8,2
					s-0.4,1.1-0.5,1.4c0.3-0.2,0.7-0.5,1-0.7c0.3-0.3,0.7-0.5,1-0.7c0,0,0,0,0.1,0s0,0,0,0c0.6-0.4,1.1-0.8,1.7-1.2
					c0.6-0.4,1-0.7,1.4-1c0,0,0,0,0.1,0.1c0,0,0,0.1,0.1,0.2c0.1,0.2,0.1,0.4,0.1,0.6c0,0.3,0.1,0.6,0.1,0.8c0,0,0,0,0,0.1
					c0,0,0,0,0,0.1c0,0.3,0,0.6-0.1,0.9c-0.1,0.3-0.2,0.5-0.3,0.6c-0.5,0.4-1,0.8-1.7,1.3s-1.3,1-2,1.5c-0.2,0.1-0.3,0.3-0.5,0.4
					s-0.3,0.3-0.5,0.4c-0.7,0.6-1.4,1.2-2,1.8c-0.6,0.6-1.1,1.1-1.4,1.6c-0.1,0.2-0.3,0.5-0.4,0.7c-0.1,0.3-0.3,0.5-0.4,0.8
					c-0.3,0.7-0.6,1.4-0.9,2.2c-0.3,0.8-0.7,1.7-1.2,2.5c-0.1,0.2-0.3,0.4-0.4,0.6c-0.1,0.2-0.3,0.4-0.4,0.6c0,0,0,0,0,0.1
					c0,0,0,0-0.1,0.1c-0.2,0.2-0.4,0.4-0.7,0.5c-0.3,0.2-0.7,0.3-1,0.3c-0.1,0-0.3,0-0.4,0c-0.1,0-0.3-0.1-0.4-0.2
					c-0.3-0.2-0.5-0.4-0.6-0.7c-0.1-0.3-0.2-0.6-0.2-1c0-0.3,0-0.7,0.1-1.2c0.1-0.4,0.2-0.9,0.4-1.3c0.1-0.2,0.1-0.3,0.2-0.5
					c0.1-0.1,0.1-0.3,0.2-0.5c0.2-0.5,0.5-1,0.8-1.5c0.3-0.5,0.6-1,1-1.5c0.6-0.9,1.2-1.6,1.7-2.3s0.8-1.1,0.8-1.3l0.1-0.7
					c0,0-0.1,0-0.1,0.1c0,0,0,0,0,0.1c-0.3,0.2-0.7,0.4-1.2,0.5c-0.5,0.2-1.1,0.2-1.7,0.2c-0.1,0-0.2,0-0.3,0s-0.2,0-0.4,0
					c-1-0.1-1.8-0.5-2.4-1.3s-0.9-1.9-0.9-3.3c0-0.1,0-0.1,0-0.2s0-0.1,0-0.2c0-0.1,0-0.1,0-0.2s0-0.1,0-0.2c0-1.7,0.3-3.3,0.9-4.7
					c0.6-1.4,2-2.6,4.1-3.5c0.3-0.2,0.7-0.3,1.1-0.4s0.7-0.2,1.1-0.3c0.8-0.2,1.6-0.3,2.4-0.4s1.5-0.1,2.2-0.1c0.5,0,1,0,1.5,0
					c0.4,0,0.8,0.1,1.1,0.1c0.2,0,0.4,0.2,0.5,0.5c0.1,0.3,0.2,0.6,0.2,1c0,0,0,0.1,0,0.1c0,0,0,0.1,0,0.1c0,0.4,0,0.7-0.1,1
					c-0.1,0.3-0.2,0.4-0.3,0.4c-0.1,0-0.1,0-0.1-0.1c0,0-0.1,0-0.1,0c-0.4-0.1-0.8-0.2-1.4-0.3c-0.5-0.1-1.1-0.1-1.7-0.1
					c-0.4,0-0.8,0-1.2,0.1c-0.4,0.1-0.8,0.1-1.2,0.2c-0.8,0.2-1.5,0.5-2.3,0.9s-1.4,1.1-2,1.8c-0.2,0.2-0.3,0.5-0.4,0.8
					c-0.1,0.3-0.2,0.5-0.3,0.8c-0.1,0.3-0.1,0.6-0.2,0.8c0,0.3,0,0.5,0,0.8c0,0.7,0.1,1.2,0.3,1.7c0.2,0.4,0.4,0.7,0.7,0.7
					c0.1,0,0.1,0,0.1,0s0.1,0,0.1,0c0.4,0,0.8-0.1,1.3-0.4s0.9-0.6,1.4-1.2c0.2-0.2,0.6-0.7,1.3-1.5c0.7-0.8,1.5-2,2.4-3.5h3.5
					C149.9,443.1,149.8,443.5,149.6,443.9z"/>
				<path class="st0" d="M154,444c0.1-0.1,0.1-0.1,0.2-0.2c1.2-1.2,2.2-2.3,3.1-3.4s1.5-1.9,1.8-2.5c0,0,0-0.1,0-0.1
					c0,0,0-0.1,0-0.1c0-0.1,0-0.1,0-0.1c0-0.2,0-0.5,0.1-0.7c0-0.3,0.1-0.6,0.2-0.8c0.2-0.6,0.4-1.2,0.8-1.8
					c0.4-0.5,0.9-0.8,1.6-0.8c0.6,0,1,0.2,1.2,0.6c0.2,0.4,0.4,0.8,0.4,1.3c0,0,0,0.1,0,0.1c0,0,0,0.1,0,0.1c0,0.1,0,0.1,0,0.1
					c0,0,0,0.1,0,0.1c0,0.3-0.1,0.6-0.2,0.8c-0.1,0.2-0.2,0.4-0.3,0.5c-0.1,0.1-0.1,0.1-0.2,0.2c-0.1,0.1-0.1,0.1-0.1,0.2
					c-0.1,0.1-0.1,0.1-0.1,0.2c0,0.1-0.1,0.1-0.1,0.2c0,0,0,0.1,0,0.2s0,0.3,0,0.5c0,0.2,0,0.3,0,0.6c0,0.2,0,0.4,0,0.7
					c0,0.2,0,0.3,0,0.5c0,0.1,0,0.3,0,0.5c0,0.6,0,1.1,0,1.7c0,0.5,0,0.9,0,1.1c0,0.3-0.1,0.6-0.1,1c0,0.4-0.1,0.8-0.2,1.1
					c-0.1,0.6-0.2,1.1-0.4,1.6s-0.4,0.9-0.6,1.3c0.2,0.1,0.4,0,0.8-0.3c0.4-0.2,0.8-0.5,1.3-0.8c0.1-0.1,0.2-0.1,0.2-0.2
					c0.1-0.1,0.1-0.1,0.2-0.2c0.3-0.3,0.7-0.5,0.9-0.7c0.3-0.2,0.5-0.4,0.7-0.5c0,0,0.1-0.1,0.1-0.1c0,0,0.1-0.1,0.1-0.1
					c0.1,0,0.1-0.1,0.2-0.1c0.1,0,0.1-0.1,0.1-0.1c0.2-0.1,0.3,0,0.4,0s0.2,0.3,0.2,0.6c0,0.1,0,0.2,0,0.4c0,0.1,0,0.3,0,0.4
					c0,0.3,0,0.6-0.1,0.9s-0.2,0.6-0.4,0.9c-0.7,0.6-1.3,1.1-1.9,1.5c-0.2,0.1-0.4,0.3-0.6,0.4c-0.2,0.1-0.4,0.3-0.6,0.4
					c-0.2,0.1-0.4,0.2-0.5,0.3c-0.2,0.1-0.3,0.1-0.5,0.2c-0.7,0.3-1.3,0.4-1.8,0.5s-0.9,0.1-1.2,0.1c-0.1,0-0.1,0-0.1,0
					s-0.1,0-0.1,0c-0.1,0-0.2,0-0.3,0s-0.2,0-0.4,0c-0.2,0-0.4,0-0.5,0.1c-0.1,0-0.3,0.1-0.4,0.1h0c-0.1,0.1-0.2,0.1-0.4,0.1
					c-0.1,0-0.3,0.1-0.5,0.1c-0.2,0-0.4,0-0.7-0.1c-0.3-0.1-0.7-0.1-1.1-0.2c-0.2-0.1-0.5-0.2-0.6-0.4c-0.2-0.2-0.3-0.4-0.4-0.7
					c-0.1-0.1-0.1-0.3-0.1-0.4c0-0.1,0-0.2,0-0.3c0-0.1,0-0.1,0-0.1s0,0,0-0.1c0-0.3,0.1-0.5,0.3-0.6c0.2-0.1,0.4-0.2,0.6-0.2
					c0.1,0,0.3,0,0.4,0c0.1,0,0.2,0,0.3,0.1c0.4,0.1,0.7,0.1,0.9,0.2c0.2,0.1,0.4,0.1,0.6,0.1c0,0,0.1,0,0.1,0c0,0,0.1,0,0.1,0
					c0.1,0,0.2-0.1,0.3-0.1c0.1,0,0.2-0.1,0.3-0.2c0.3-0.2,0.7-0.6,0.9-1.2c0.3-0.6,0.5-1.3,0.7-2c0.1-0.5,0.2-1,0.3-1.5
					c0.1-0.5,0.1-0.8,0.1-1.2c0-0.2,0-0.4,0-0.5c0-0.1-0.1-0.2-0.1-0.2c-0.1,0-0.5,0.3-1.2,1c-0.7,0.7-1.4,1.4-2.2,2.3
					c-0.1,0-0.1,0.1-0.1,0.1c0,0.1-0.1,0.1-0.1,0.1c-0.5,0.5-1,1-1.5,1.5c-0.5,0.5-0.9,0.8-1.3,1.1c-0.1,0.1-0.2-0.1-0.2-0.3
					c0-0.3,0-0.6,0-1c0-0.1,0-0.2,0-0.2c0-0.1,0-0.1,0-0.2c0-0.3,0-0.6,0-0.9c0-0.3,0.1-0.5,0.1-0.6c0-0.1,0.1-0.2,0.3-0.4
					c0.2-0.2,0.4-0.3,0.6-0.5c0,0,0.1,0,0.1,0c0.2-0.2,0.3-0.3,0.5-0.4c0.2-0.1,0.3-0.2,0.4-0.3C153.9,444.2,154,444.1,154,444z"/>
			</g>
			<g id="XMLID_49_">
				<g id="XMLID_65_">
					<path id="XMLID_66_" class="st4" d="M32.9,402.7c-2.1-2.1-5-3.2-8.7-3.2c-3.3,0-6.1,1.1-8.4,3.4c-2.3,2.3-3.4,5-3.4,8.3
						s1.1,6.1,3.4,8.4c2.3,2.2,5.1,3.3,8.5,3.3c0.6,0,1.2-0.1,1.9-0.2c0,0,0.8-0.2,1.3-0.5v0.2H36v-11
						C36.1,407.7,35,404.8,32.9,402.7z M27.6,413l-1.3,1c-0.6,0.4-1.3,0.6-2.1,0.6c-0.9,0-1.7-0.3-2.3-0.9s-0.9-1.4-0.9-2.3
						c0-0.9,0.3-1.7,1-2.3c0.6-0.6,1.4-1,2.3-1c1,0,1.8,0.4,2.4,1.1c0.6,0.7,0.9,1.7,0.9,2.8L27.6,413L27.6,413z"/>
				</g>
				<path id="XMLID_37_" class="st4" d="M15.5,399.9l0.1-0.1h-0.1c-1.3-0.3-6.2-0.3-6.8-0.3c-3,0-5.4,1-7.2,2.9
					c-1.8,1.9-2.7,4.5-2.7,7.8v12.3h8.5v-10.8c0-2.3,0.8-3.5,2.3-3.5c0.2,0,0.4,0,0.6,0.1c0.5-2.7,1.8-5.2,3.9-7.2
					C14.5,400.7,15,400.3,15.5,399.9z"/>
				<path id="XMLID_36_" class="st4" d="M70,400.2h-8.5v12.1c0,1.7-0.5,2.5-1.4,2.5c-0.5,0-0.9-0.2-1.1-0.5c-0.2-0.4-0.3-1-0.3-2
					v-12.1h-8.5v12.1c0,1.7-0.5,2.5-1.4,2.5c-0.5,0-0.9-0.2-1.1-0.5c-0.2-0.4-0.3-1-0.3-2v-12.1h-8.5v12.9c0,3,0.7,5.3,2,7
					c1.7,2,4,3.1,6.8,3.1c2.2,0,4.5-1,6.7-3.1c2,2.1,4.3,3.1,6.8,3.1c2.4,0,4.5-0.9,6.2-2.6c1.7-1.8,2.6-3.9,2.6-6.4V400.2z"/>
				<path id="XMLID_35_" class="st4" d="M99.6,412.8c-0.6-0.7-0.9-1.9-0.9-3.7h3.8v-8.9h-3.8v-8.6l-8.5,4.2v14.3
					c0,3.2,0.6,5.8,2,7.7c1,1.5,2.4,2.7,4.1,3.6c1.7,0.9,3.5,1.3,5.4,1.3c0.2,0,0.5,0,1,0v-8.9C101.2,413.8,100.1,413.5,99.6,412.8z
					"/>
				<rect id="XMLID_34_" x="121.6" y="399.9" class="st4" width="8.5" height="22.5"/>
				<path id="XMLID_33_" class="st4" d="M145.3,399.4c-2.8,0-5.2,1-7.2,3s-2.9,4.5-2.9,7.4v12.5h8.5v-12.6c0-1.3,0.5-1.9,1.6-1.9
					s1.6,0.6,1.6,1.9v12.7h8.5v-11.9c0-3.2-0.8-5.8-2.3-7.6C151.1,400.6,148.5,399.4,145.3,399.4z"/>
				<g id="XMLID_56_">
					<path id="XMLID_57_" class="st4" d="M179.8,403.3c-0.9-1.2-2.2-2.1-3.8-2.8c-1.6-0.7-3.3-1.1-5.1-1.1c-3.3,0-6.1,1.1-8.4,3.3
						s-3.4,4.9-3.4,8.1c0,3,0.9,5.5,2.9,7.5c1.9,2.1,4.2,3.1,7,3.1c1.1,0,2.3-0.2,3.5-0.7l1.2-0.3c-0.1,1.3-0.5,2.4-1.2,3.2
						c-0.8,1-2,1.5-3.5,1.5c-1.1,0-2.3-0.3-3.4-0.9v7.7c1.7,0.6,3.1,0.8,4.3,0.8c3.7,0,6.7-1.2,9-3.7s3.4-5.8,3.4-9.8v-7.3
						C182.2,408.2,181.4,405.3,179.8,403.3z M173.7,412.7c-0.5,0.3-1.7,0.9-2.9,0.9c-0.9,0-1.6-0.3-2.2-0.9s-0.9-1.3-0.9-2.1
						c0-0.8,0.3-1.5,0.9-2.2c0.6-0.6,1.3-0.9,2.1-0.9c1.9,0,2.9,1.2,2.9,3.5v1.7H173.7z"/>
				</g>
				<path id="XMLID_30_" class="st4" d="M109.4,402.3c-1.8,1.9-2.7,4.5-2.7,7.8v12.3h1c0.4-0.2,0.7-0.3,1.1-0.5
					c0.9-0.3,1.9-0.5,2.8-0.5c1.3,0,2.5,0.3,3.7,0.8v-10.5c0-2.3,0.8-3.5,2.3-3.5c0.5,0,1,0.2,1.6,0.5v-9c-1.1-0.2-1.9-0.2-2.6-0.2
					C113.6,399.4,111.2,400.4,109.4,402.3z"/>
				<g id="XMLID_51_">
					<path id="XMLID_52_" class="st4" d="M-9.2,395.6c-3-2.4-7.1-3.5-12.3-3.5h-2.7c-1.2,0.1-2.4,0.4-3.5,0.9
						c-1.5,0.7-2.7,1.5-3.5,2.6c-1.4,1.8-2.2,4.4-2.2,7.9v6.8c0,0.5,0,12.5,0,12.5h8.7c1.3,0.1,4.1,0,4.7,0c4.7,0,8.6-1.5,11.6-4.4
						c3-2.9,4.5-6.7,4.5-11.3C-3.9,402.2-5.6,398.4-9.2,395.6z M-21.3,413.7h-3v-10c0.1-0.8,0.4-1.4,1-2s1.3-0.9,2-1h0.1
						c5.3,0,7.9,2.1,7.9,6.2C-13.3,411.5-16,413.7-21.3,413.7z"/>
				</g>
				<path id="XMLID_27_" class="st4" d="M78.9,402.6c-1,0.9-1.6,1.8-1.9,2.8c-0.3,0.9-0.5,2.5-0.7,4.8c-0.1,1.4-0.4,2.4-1,3
					s-1.6,0.8-2.9,0.8H72c0,3.1-0.8,5.8-3,8c-0.3,0.3-0.6,0.5-0.9,0.8v0.1h5c2.9,0,5.2-0.5,6.8-1.4c3-1.8,4.7-4.9,5.1-9.2
					c0.1-1.3,0.4-2.2,0.9-2.6c0.4-0.4,1.3-0.7,2.5-0.7v-8.9h-2.6C82.8,400.2,80.5,401,78.9,402.6z"/>
			</g>
		</g>
	</g>
</g>
</svg>
